<!-- icon666.com - MILLIONS vector ICONS FREE --><svg version="1.1" id="Layer_1" xmlns="http://www.w3.org/2000/svg" xmlns:xlink="http://www.w3.org/1999/xlink" x="0px" y="0px" viewBox="0 0 512 512" style="enable-background:new 0 0 512 512;" xml:space="preserve"><path style="fill:#0D3131;" d="M63.999,367.303h49.683v55.855c0,13.664-11.175,24.842-24.839,24.842s-24.844-11.177-24.844-24.842 V367.303z M398.319,367.303v55.855c0,13.664,11.177,24.842,24.839,24.842h0.002c13.665,0,24.844-11.177,24.844-24.842v-55.855 H398.319z"></path><path style="fill:#B1D7C5;" d="M448.003,256v21.402H63.999V256l14.028-95.979C85.742,107.208,135.265,64,188.077,64h59.927h15.992 h59.927c52.814,0,102.332,43.208,110.051,96.02L448.003,256z"></path><path style="fill:#FFCE76;" d="M361.879,160.488c0,23.397-18.967,42.366-42.366,42.366s-42.366-18.967-42.366-42.366 s18.967-42.366,42.366-42.366C342.911,118.122,361.879,137.089,361.879,160.488z"></path><path style="fill:#FFBB5E;" d="M361.879,160.486c0,23.397-18.967,42.366-42.366,42.366c-16.767,0-31.257-9.741-38.124-23.873 c5.589,2.716,11.862,4.242,18.493,4.242c23.397,0,42.366-18.967,42.366-42.366c0-6.632-1.526-12.905-4.242-18.493 C352.137,129.231,361.879,143.721,361.879,160.486z"></path><path style="fill:#415E5C;" d="M384.003,243.758c0,4.187-0.407,8.28-1.172,12.242v21.402H257.179V256 c-0.77-3.961-1.176-8.054-1.176-12.242c0-35.346,28.655-64,64.001-64C355.347,179.758,384.003,208.412,384.003,243.758z"></path><path style="fill:#0D3131;" d="M361.555,244.242c0,22.95-18.605,41.553-41.553,41.553c-22.949,0-41.553-18.605-41.553-41.553 s18.604-41.553,41.553-41.553C342.951,202.689,361.555,221.292,361.555,244.242z"></path><path style="fill:#D1141C;" d="M63.999,384.001C28.799,384.001,0,355.202,0,320v-0.002C0,284.799,28.799,256,63.999,256h384.006 C483.201,256,512,284.799,512,319.997v0.002C512,355.201,483.201,384,448.004,384H63.999V384.001z"></path><path style="fill:#A7141C;" d="M503.221,287.778c5.567,9.479,8.779,20.489,8.779,32.218v0.002C512,355.201,483.201,384,448.004,384 H63.999C28.799,384.001,0,355.202,0,320v-0.002c0-11.729,3.212-22.739,8.779-32.218c11.139,18.967,31.75,31.78,55.219,31.78h384.006 C471.472,319.559,492.082,306.747,503.221,287.778z"></path><path style="fill:#F4BB19;" d="M143.449,319.999L143.449,319.999c0,11.681-9.554,21.234-21.228,21.234H85.234 c-11.678,0-21.235-9.552-21.235-21.232v-0.001c0-11.678,9.557-21.231,21.235-21.231h36.988 C133.895,298.768,143.449,308.321,143.449,319.999z M426.769,298.768h-36.988c-11.678,0-21.23,9.553-21.23,21.231V320 c0,11.68,9.552,21.232,21.23,21.232h36.988c11.676,0,21.235-9.552,21.235-21.232v-0.001 C448.003,308.321,438.445,298.768,426.769,298.768z"></path><path style="fill:#FFFFFF;" d="M169.258,141.922l-22.669,28.696c-1.977,2.502-4.909,3.808-7.867,3.808 c-2.175,0-4.364-0.705-6.203-2.157c-4.342-3.43-5.081-9.729-1.652-14.071l22.669-28.696c3.429-4.341,9.728-5.08,14.071-1.651 C171.949,131.281,172.688,137.58,169.258,141.922z M247.054,101.852c-4.342-3.429-10.642-2.69-14.071,1.651l-79.448,100.572 c-3.429,4.342-2.69,10.641,1.651,14.071c1.839,1.453,4.028,2.157,6.203,2.157c2.96,0,5.89-1.306,7.867-3.808l79.448-100.572 C252.135,111.58,251.396,105.282,247.054,101.852z"></path></svg>