<!-- icon666.com - MILLIONS vector ICONS FREE --><svg version="1.1" id="Capa_1" xmlns="http://www.w3.org/2000/svg" xmlns:xlink="http://www.w3.org/1999/xlink" x="0px" y="0px" viewBox="0 0 512 512" style="enable-background:new 0 0 512 512;" xml:space="preserve"><g><g><path d="M256,0C156.16,0,76.8,79.36,76.8,179.2C76.8,332.8,256,512,256,512s179.2-179.2,179.2-332.8C435.2,79.36,355.84,0,256,0z M256,307.2c-71.68,0-128-56.32-128-128s56.32-128,128-128s128,56.32,128,128S327.68,307.2,256,307.2z"></path></g></g><g><g><circle cx="256" cy="128" r="51.2"></circle></g></g><g><g><path d="M256,179.2c-38.4,0-71.68,20.48-89.6,51.2c17.92,30.72,51.2,51.2,89.6,51.2s71.68-20.48,89.6-51.2 C327.68,199.68,294.4,179.2,256,179.2z"></path></g></g></svg>