<!-- icon666.com - MILLIONS vector ICONS FREE --><svg id="svg1144" viewBox="0 0 8.4666667 8.4666667" xmlns="http://www.w3.org/2000/svg" xmlns:svg="http://www.w3.org/2000/svg"><g id="layer2"><path id="path824" d="m3.4386521.0000004c-.4413142 0-.792701.357556-.792701.79271599v2.64686711h2.9093248c.2205231 0 .4527801.1011849.5937501.2599327.14097.1587471.19895.3491593.19895.5327841 0 .183624-.05798.3745532-.19895.5333-.14097.1587481-.373227.2619999-.5937501.2619999h-2.9093248v2.6463501c0 .4403061.3575879.792716.792701.792716h4.2353137c.4351131 0 .7927012-.3523861.7927012-.792716v-6.88123391c0-.43515999-.3524221-.79271599-.7927012-.79271599zm-2.0391111 2.72438-1.32237304 1.3223991c-.10289444.1028965-.10289439.2702073 0 .3731038l1.32237304 1.3224002c.250086.2501198.625249-.1250612.375163-.3751713l-.87073006-.8691978h4.65336806c.3523941 0 .3523941-.5291661 0-.5291661h-4.65181705l.86917905-.8691981c.2414207-.2691004-.1240044-.6156878-.375163-.3751698z" font-variant-ligatures="normal" font-variant-position="normal" font-variant-caps="normal" font-variant-numeric="normal" font-variant-alternates="normal" font-feature-settings="normal" text-indent="0" text-align="start" text-decoration-line="none" text-decoration-style="solid" text-decoration-color="rgb(0,0,0)" text-transform="none" text-orientation="mixed" white-space="normal" shape-padding="0" isolation="auto" mix-blend-mode="normal" solid-color="rgb(0,0,0)" solid-opacity="1" vector-effect="none"></path></g></svg>    