<!-- icon666.com - MILLIONS vector ICONS FREE --><svg id="Capa_1" enable-background="new 0 0 512 512" viewBox="0 0 512 512" xmlns="http://www.w3.org/2000/svg"><path d="m472 256c0-82.71-67.29-150-150-150s-150 67.29-150 150 67.29 150 150 150 150-67.29 150-150zm-140 129.619v-19.619c0-5.523-4.477-10-10-10s-10 4.477-10 10v19.619c-63.727-4.87-114.748-55.892-119.619-119.619h19.619c5.523 0 10-4.477 10-10s-4.477-10-10-10h-19.619c4.871-63.727 55.892-114.749 119.619-119.619v19.619c0 5.523 4.477 10 10 10s10-4.477 10-10v-19.619c63.727 4.871 114.748 55.892 119.619 119.619h-19.619c-5.523 0-10 4.477-10 10s4.477 10 10 9.99h19.619c-4.871 63.737-55.892 114.759-119.619 119.629z"></path><path d="m97 186h-57c-5.523 0-10 4.477-10 10s4.477 10 10 10h57c5.523 0 10-4.477 10-10s-4.477-10-10-10z"></path><path d="m0 256c0 5.523 4.477 10 10 10h72c5.523 0 10-4.477 10-10s-4.477-10-10-10h-72c-5.523 0-10 4.477-10 10z"></path><path d="m107 316c0-5.523-4.477-10-10-10h-57c-5.523 0-10 4.477-10 10s4.477 10 10 10h57c5.523 0 10-4.477 10-10z"></path><path d="m332 251.858v-65.858c0-5.523-4.477-10-10-10s-10 4.477-10 10v70c0 2.652 1.054 5.196 2.929 7.071l40 40c3.905 3.905 10.237 3.905 14.143 0 3.905-3.905 3.905-10.237 0-14.143z"></path><circle cx="322" cy="436" r="10"></circle><path d="m322 66c-104.766 0-190 85.233-190 190 0 86.926 58.751 162.633 142.872 184.107 5.351 1.367 10.796-1.865 12.163-7.216 1.366-5.351-1.865-10.796-7.216-12.163-75.258-19.21-127.819-86.949-127.819-164.728 0-93.738 76.262-170 170-170s170 76.262 170 170c0 77.779-52.561 145.518-127.818 164.728-5.352 1.366-8.582 6.812-7.216 12.163 1.357 5.315 6.773 8.59 12.163 7.216 84.12-21.474 142.871-97.181 142.871-184.107 0-104.767-85.234-190-190-190z"></path></svg>